<?xml version="1.0" encoding="utf-8"?>
<!-- Generator: Adobe Illustrator 15.0.0, SVG Export Plug-In . SVG Version: 6.00 Build 0)  -->
<!DOCTYPE svg PUBLIC "-//W3C//DTD SVG 1.1//EN" "http://www.w3.org/Graphics/SVG/1.1/DTD/svg11.dtd">
<svg version="1.1" id="Layer_1" xmlns="http://www.w3.org/2000/svg" xmlns:xlink="http://www.w3.org/1999/xlink" x="0px" y="0px"
	 width="612px" height="233px" viewBox="0 0 612 233" enable-background="new 0 0 612 233" xml:space="preserve">
<g>
	<path fill="#4A5D75" d="M219.278,146.734c0,16.957-11.726,31.389-31.388,31.389c-11.726,0-19.482-6.494-23.992-11.545
		l14.431-11.545c2.525,2.525,6.314,4.689,10.102,4.689c4.51,0,12.447-2.705,12.447-15.514V48.604h18.4V146.734z"/>
	<path fill="#4A5D75" d="M228.297,78.908c0-20.926,15.875-31.387,30.847-31.387c14.972,0,30.847,10.461,30.847,31.387v6.494h-18.4
		v-6.494c0-8.838-5.772-12.988-12.446-12.988c-6.675,0-12.447,4.15-12.447,12.988v67.826c0,8.84,5.772,12.988,12.447,12.988
		c6.674,0,12.446-4.148,12.446-12.988v-24.172h-14.611v-16.234h33.012v40.406c0,20.926-15.875,31.389-30.847,31.389
		c-14.973,0-30.847-10.463-30.847-31.389V78.908z"/>
	<path fill="#4A5D75" d="M297.929,85.582h18.4v9.742c7.576-6.674,13.709-10.824,24.353-10.824v19.482
		c-1.805-0.721-3.608-1.082-5.593-1.082c-7.757,0-18.76,4.871-18.76,19.842v54.299h-18.4V85.582z"/>
	<path fill="#4A5D75" d="M338.184,116.25c0-7.396,0.901-13.891,3.427-18.582c4.33-7.936,12.808-13.168,23.992-13.168
		s19.662,5.232,23.992,13.168c2.525,4.691,3.427,11.186,3.427,18.582v30.125c0,7.395-0.901,13.889-3.427,18.58
		c-4.33,7.936-12.808,13.168-23.992,13.168s-19.662-5.232-23.992-13.168c-2.525-4.691-3.427-11.186-3.427-18.58V116.25z
		 M356.583,149.26c0,6.855,3.428,10.463,9.02,10.463s9.02-3.607,9.02-10.463v-35.896c0-6.855-3.428-10.463-9.02-10.463
		s-9.02,3.607-9.02,10.463V149.26z"/>
	<path fill="#4A5D75" d="M454.354,177.041h-18.399v-8.84h-0.36c-3.788,5.773-8.84,9.922-17.317,9.922
		c-9.2,0-18.941-5.953-18.941-22.369V85.582h18.399V148.9c0,6.674,3.247,10.822,9.02,10.822c6.855,0,9.2-4.51,9.2-12.627V85.582
		h18.399V177.041z"/>
	<path fill="#4A5D75" d="M462.293,85.582h18.399v8.299c4.69-5.23,8.299-9.381,17.498-9.381c7.396,0,12.808,2.707,16.055,8.66
		c2.165,3.967,3.066,9.561,3.066,19.662v34.814c0,13.168-0.541,18.4-2.886,22.188c-3.066,4.871-7.576,8.299-16.415,8.299
		c-7.216,0-12.988-3.428-16.957-9.381h-0.361v45.279h-18.399V85.582z M498.912,115.348c0-7.396-2.706-12.447-9.02-12.447
		c-5.592,0-9.2,4.689-9.2,11.365v35.535c0,5.773,3.969,9.922,9.2,9.922c7.035,0,9.02-5.051,9.02-10.822V115.348z"/>
	<path fill="#4A5D75" d="M558.621,111.197c-0.181-6.133-4.51-9.379-9.38-9.379c-5.772,0-9.02,4.51-9.02,9.199
		c0,3.428,0.901,6.674,7.757,9.381l10.823,4.328c13.709,5.232,18.039,14.973,18.039,25.797c0,15.152-11.545,27.6-27.42,27.6
		c-14.431,0-26.697-9.561-27.419-27.6h17.317c0.722,5.051,3.066,10.281,9.922,10.281c5.231,0,10.282-3.787,10.282-9.92
		c0-5.053-2.165-8.479-9.2-11.186l-8.839-3.246c-11.545-4.33-18.58-12.988-18.58-25.256c0-15.512,12.267-26.697,27.059-26.697
		c14.972,0,25.795,11.545,25.976,26.697H558.621z"/>
</g>
<g>
	<g>
		<g>
			<g>
				<g>
					<g>
						<g>
							<linearGradient id="SVGID_1_" gradientUnits="userSpaceOnUse" x1="204.6191" y1="111.4648" x2="153.6217" y2="22.9689">
								<stop  offset="0" style="stop-color:#4A5D75"/>
								<stop  offset="1" style="stop-color:#243446"/>
							</linearGradient>
							<polyline fill="url(#SVGID_1_)" points="201.637,30.234 119.058,39.047 154.944,51.074 146.039,76.729 201.637,30.234 
															"/>
							<linearGradient id="SVGID_2_" gradientUnits="userSpaceOnUse" x1="154.7866" y1="140.1816" x2="103.789" y2="51.6854">
								<stop  offset="0" style="stop-color:#4A5D75"/>
								<stop  offset="1" style="stop-color:#243446"/>
							</linearGradient>
							<polyline fill="url(#SVGID_2_)" points="156.678,79.664 88.877,89.607 88.88,89.607 120.535,94.793 116.894,111.289 
								156.678,79.664 							"/>
							<linearGradient id="SVGID_3_" gradientUnits="userSpaceOnUse" x1="138.2773" y1="149.6953" x2="87.2799" y2="61.1994">
								<stop  offset="0" style="stop-color:#4A5D75"/>
								<stop  offset="1" style="stop-color:#243446"/>
							</linearGradient>
							<polyline fill="url(#SVGID_3_)" points="120.608,23.979 16.671,33.725 70.912,48.227 73.292,77.543 120.608,23.979 							
								"/>
						</g>
					</g>
				</g>
			</g>
		</g>
	</g>
</g>
</svg>
